<?xml version="1.0" encoding="UTF-8" standalone="no"?>
<svg width="195px" height="200px" viewBox="0 0 195 200" version="1.1" xmlns="http://www.w3.org/2000/svg" xmlns:xlink="http://www.w3.org/1999/xlink" xmlns:sketch="http://www.bohemiancoding.com/sketch/ns">
    <!-- Generator: Sketch 3.5.1 (25234) - http://www.bohemiancoding.com/sketch -->
    <title>180 - iPhone 6 Plus Copy</title>
    <desc>Created with Sketch.</desc>
    <defs></defs>
    <g id="Page-1" stroke="none" stroke-width="1" fill="none" fill-rule="evenodd" sketch:type="MSPage">
        <g id="180---iPhone-6-Plus-Copy" sketch:type="MSArtboardGroup" fill="#0092D0">
            <path d="M152.5583,71.1165997 L146.992533,71.1165997 L146.992533,54.3101666 C146.992533,47.3983955 145.664765,40.8868772 143.00919,34.7754164 C140.353615,28.6639557 136.752272,23.3346963 132.205055,18.7874785 C127.657837,14.2402606 122.328577,10.6389181 116.217117,7.98334291 C110.105656,5.32776769 103.594138,4 96.6823665,4 C89.7705953,4 83.2590771,5.32776769 77.1476163,7.98334291 C71.0361555,10.6389181 65.7068962,14.2402606 61.1596783,18.7874785 C56.6124605,23.3346963 53.011118,28.6639557 50.3555428,34.7754164 C47.6999676,40.8868772 46.3721999,47.3983955 46.3721999,54.3101666 L46.3721999,71.1165997 L40.8064331,71.1165997 C36.150082,71.1165997 32.1849675,72.7535735 28.9109707,76.0275704 C25.6369739,79.3015672 24,83.2303045 24,87.8139001 L24,177.193567 C24,181.849918 25.6369739,185.815032 28.9109707,189.089029 C32.1849675,192.363026 36.150082,194 40.8064331,194 L152.5583,194 C157.141895,194 161.070633,192.363026 164.34463,189.089029 C167.618626,185.815032 169.2556,181.849918 169.2556,177.193567 L169.2556,87.8139001 C169.2556,83.2303045 167.618626,79.3015672 164.34463,76.0275704 C161.070633,72.7535735 157.141895,71.1165997 152.5583,71.1165997 L152.5583,71.1165997 Z M57.5037335,54.3101666 C57.5037335,48.9262607 58.5404836,43.8516417 60.6140149,39.0861574 C62.6875463,34.3206731 65.4885904,30.1736726 69.0172315,26.6450316 C72.5458725,23.1163906 76.692873,20.333535 81.4583573,18.2963814 C86.2238416,16.2592278 91.2984605,15.2406663 96.6823665,15.2406663 C102.066272,15.2406663 107.122703,16.2592278 111.851809,18.2963814 C116.580916,20.333535 120.727916,23.1163906 124.292935,26.6450316 C127.857954,30.1736726 130.658998,34.3206731 132.696152,39.0861574 C134.733305,43.8516417 135.751867,48.9262607 135.751867,54.3101666 L135.751867,71.1165997 L57.5037335,71.1165997 L57.5037335,54.3101666 Z M158.124067,177.193567 C158.124067,178.794188 157.578409,180.140144 156.487076,181.231476 C155.395744,182.322808 154.086165,182.868466 152.5583,182.868466 L40.8064331,182.868466 C39.2785679,182.868466 37.9689888,182.322808 36.8776565,181.231476 C35.7863242,180.140144 35.2406663,178.794188 35.2406663,177.193567 L35.2406663,87.8139001 C35.2406663,86.2860349 35.7863242,84.9764558 36.8776565,83.8851235 C37.9689888,82.7937912 39.2785679,82.2481333 40.8064331,82.2481333 L152.5583,82.2481333 C154.086165,82.2481333 155.395744,82.7937912 156.487076,83.8851235 C157.578409,84.9764558 158.124067,86.2860349 158.124067,87.8139001 L158.124067,177.193567 Z" id="lock" sketch:type="MSShapeGroup"></path>
        </g>
    </g>
</svg>