<?xml version="1.0" encoding="UTF-8" standalone="no"?>
<svg width="656px" height="96px" viewBox="0 0 656 96" version="1.1" xmlns="http://www.w3.org/2000/svg" xmlns:xlink="http://www.w3.org/1999/xlink">
    <!-- Generator: Sketch 39.1 (31720) - http://www.bohemiancoding.com/sketch -->
    <title>1024</title>
    <desc>Created with Sketch.</desc>
    <defs></defs>
    <g id="Page-1" stroke="none" stroke-width="1" fill="none" fill-rule="evenodd">
        <g id="1024" fill="#FFF500">
            <path d="M12.2117968,88.696311 L12.2117968,9.43365193 L80.166902,9.43365193 L80.166902,33.0367983 L38.0105847,33.0367983 L38.0105847,42.1487107 L65.2365396,42.1487107 L65.2365396,55.9812523 L38.0105847,55.9812523 L38.0105847,65.0931646 L86.8636087,65.0931646 L86.8636087,88.696311 L12.2117968,88.696311 Z M140.358219,65.0931646 L165.168968,65.0931646 L165.168968,88.696311 L130.038704,88.696311 C121.439065,88.696311 113.662912,87.1685258 106.710012,84.1129093 C99.7571128,81.0572929 94.2772123,76.4739371 90.2701464,70.3627043 C86.2630806,64.2514715 84.2595778,56.7680681 84.2595778,47.9122697 C84.2595778,41.6912543 85.4580201,36.1381664 87.8549408,31.2528396 C90.2518614,26.3675128 93.572736,22.3056166 97.8176642,19.0670291 C102.062592,15.8284417 106.938697,13.4132602 112.446126,11.8214121 C117.953554,10.229564 123.817688,9.43365193 130.038704,9.43365193 L151.775555,9.43365193 L165.168968,9.43365193 L165.168968,33.0367983 L140.358219,33.0367983 C134.795899,33.0367983 130.679112,33.2014698 128.007735,33.5308177 C125.336358,33.8601656 122.95777,34.4090705 120.8719,35.1775488 C118.78603,35.9460272 116.938051,37.2816958 115.327905,39.1845946 C113.71776,41.0874935 112.784622,44.4541101 112.528462,49.2845456 C112.711433,53.9686043 113.644572,57.3169242 115.327905,59.3296056 C117.011239,61.3422871 119.060484,62.6779557 121.475702,63.3366514 C123.890919,63.9953472 126.379288,64.4527679 128.940883,64.7089274 C131.502477,64.9650868 135.308218,65.0931646 140.358219,65.0931646 L140.358219,65.0931646 Z M214.052731,36.7693889 L214.052731,9.43365193 L239.851519,9.43365193 L239.851519,88.696311 L214.052731,88.696311 L214.052731,60.1529712 L193.303918,60.1529712 L193.303918,88.696311 L167.505131,88.696311 L167.505131,9.43365193 L193.303918,9.43365193 L193.303918,36.7693889 L214.052731,36.7693889 Z M333.745933,49.5041098 C333.745933,58.1769372 331.934547,65.5688564 328.31172,71.6800892 C324.688894,77.791322 319.446852,82.3838263 312.585438,85.4577398 C305.724024,88.5316533 297.536192,90.068587 288.021698,90.068587 C278.507204,90.068587 270.33767,88.5225049 263.51285,85.4302943 C256.68803,82.3380837 251.519175,77.7638762 248.006131,71.7075347 C244.493087,65.6511932 242.736592,58.2501256 242.736592,49.5041098 C242.736592,42.8805581 243.742917,37.0530178 245.755599,32.0213141 C247.76828,26.9896105 250.71407,22.7538944 254.593056,19.3140388 C258.472042,15.8741832 263.229218,13.266885 268.864726,11.4920659 C274.500234,9.71724675 280.885828,8.82985051 288.021698,8.82985051 C297.499598,8.82985051 305.678281,10.3942295 312.557992,13.5230343 C319.437703,16.6518391 324.688894,21.2626402 328.31172,27.3555759 C331.934547,33.4485116 333.745933,40.8312824 333.745933,49.5041098 L333.745933,49.5041098 Z M270.895694,49.7236739 C270.895694,54.8102689 272.039246,59.2381017 274.326384,63.0073052 C276.613522,66.7765086 281.123691,68.6610821 287.857025,68.6610821 C293.053403,68.6610821 296.941479,67.6730533 299.521371,65.696966 C302.101262,63.7208788 303.711383,61.4612203 304.351782,58.9179228 C304.992181,56.3746253 305.422156,53.3099064 305.641721,49.7236739 C305.422156,44.637079 304.196269,40.2000978 301.964022,36.4125972 C299.731775,32.6250966 295.02949,30.7313747 287.857025,30.7313747 C276.549415,30.7313747 270.895694,37.0620778 270.895694,49.7236739 L270.895694,49.7236739 Z M337.673936,88.696311 L337.673936,9.43365193 L391.741608,9.43365193 C400.414436,9.50684035 407.010443,11.0071804 411.529827,13.9347171 C416.049212,16.8622537 418.784588,21.7658041 419.736038,28.6455153 C420.065386,33.9150813 418.949279,38.0501648 416.387684,41.0508899 C413.82609,44.051615 409.599522,46.521687 403.707855,48.4611801 L403.707855,48.6807442 C406.598797,49.0466863 409.270134,49.8243016 411.721946,51.0136133 C414.173758,52.2029251 416.232151,53.611781 417.897188,55.2402233 C419.562224,56.8686656 420.852151,58.7074969 421.767006,60.7567726 C422.681861,62.8060483 423.139282,64.8186996 423.139282,66.7947868 C423.139282,73.0523964 421.538309,77.7912754 418.336316,81.0115657 C415.134323,84.231856 411.017536,86.3359915 405.985833,87.3240351 C400.954129,88.3120787 394.852136,88.7694995 387.679671,88.696311 L337.673936,88.696311 Z M365.009673,58.0122207 L365.009673,72.6681279 L382.629696,72.6681279 C385.667015,72.7779105 388.320055,72.1192246 390.588896,70.6920505 C392.857737,69.2648764 393.992141,67.5083807 393.992141,65.4225109 C394.211706,63.1170757 393.287716,61.3056896 391.220143,59.9882981 C389.152571,58.6709066 386.289117,58.0122207 382.629696,58.0122207 L365.009673,58.0122207 Z M365.009673,28.6455153 L365.009673,40.6666526 L384.221536,40.6666526 C385.282768,40.6666526 386.398875,40.1085993 387.569889,38.992476 C388.740904,37.8763526 389.362996,36.385161 389.436185,34.5188564 C389.289808,32.3597981 388.58538,30.8411612 387.32288,29.9629002 C386.060379,29.0846392 385.008312,28.6455153 384.166645,28.6455153 L365.009673,28.6455153 Z M419.492321,88.696311 L445.565565,9.43365193 L484.922439,9.43365193 L511.43481,88.696311 L481.464303,88.696311 L476.469219,74.4246411 L452.920964,74.4246411 L447.925879,88.696311 L419.492321,88.696311 Z M465.326338,26.9987841 L453.963893,58.396458 L475.810527,58.396458 L465.326338,26.9987841 Z M572.83373,33.0367983 L553.512084,33.0367983 C544.107373,32.7440447 542.716814,35.3421945 549.340366,40.8313258 C561.196889,51.2240809 567.015281,61.323931 566.795716,71.1311788 C566.57615,80.9384267 560.757759,86.7934122 549.340366,88.696311 L507.184048,88.696311 L507.184048,65.0931646 L523.870924,65.0931646 C534.227085,65.3859183 535.544457,62.4950192 527.823079,56.4203806 C515.088294,44.7102339 509.672432,33.951698 511.575331,24.1444502 C513.47823,14.3372023 519.47959,9.43365193 529.579592,9.43365193 L572.83373,9.43365193 L572.83373,33.0367983 Z M572.91936,88.696311 L572.91936,9.43365193 L640.874465,9.43365193 L640.874465,33.0367983 L598.718148,33.0367983 L598.718148,42.1487107 L625.944103,42.1487107 L625.944103,55.9812523 L598.718148,55.9812523 L598.718148,65.0931646 L647.571172,65.0931646 L647.571172,88.696311 L572.91936,88.696311 Z" id="echobase"></path>
        </g>
    </g>
</svg>