<?xml version="1.0" encoding="UTF-8" standalone="no"?>
<svg width="195px" height="200px" viewBox="0 0 195 200" version="1.1" xmlns="http://www.w3.org/2000/svg" xmlns:xlink="http://www.w3.org/1999/xlink" xmlns:sketch="http://www.bohemiancoding.com/sketch/ns">
    <!-- Generator: Sketch 3.5.1 (25234) - http://www.bohemiancoding.com/sketch -->
    <title>180 - iPhone 6 Plus Copy 2</title>
    <desc>Created with Sketch.</desc>
    <defs></defs>
    <g id="Page-1" stroke="none" stroke-width="1" fill="none" fill-rule="evenodd" sketch:type="MSPage">
        <g id="180---iPhone-6-Plus-Copy-2" sketch:type="MSArtboardGroup" fill="#0092D0">
            <path d="M97.2685547,107.555664 C90.0321904,107.555664 83.2443351,106.179539 76.9047852,103.427246 C70.5652352,100.674954 65.0298088,96.9331291 60.2983398,92.2016602 C55.5668709,87.4701912 51.8405084,81.9347648 49.1191406,75.5952148 C46.3977729,69.2556649 45.0371094,62.4987338 45.0371094,55.3242188 C45.0371094,48.0878544 46.3977729,41.2999991 49.1191406,34.9604492 C51.8405084,28.6208993 55.5668709,23.0854729 60.2983398,18.3540039 C65.0298088,13.6225349 70.5652352,9.88071038 76.9047852,7.12841797 C83.2443351,4.37612556 90.0321904,3 97.2685547,3 C104.44307,3 111.200001,4.37612556 117.539551,7.12841797 C123.879101,9.88071038 129.414527,13.6225349 134.145996,18.3540039 C138.877465,23.0854729 142.61929,28.6208993 145.371582,34.9604492 C148.123874,41.2999991 149.5,48.0878544 149.5,55.3242188 C149.5,62.4987338 148.123874,69.2556649 145.371582,75.5952148 C142.61929,81.9347648 138.877465,87.4701912 134.145996,92.2016602 C129.414527,96.9331291 123.879101,100.674954 117.539551,103.427246 C111.200001,106.179539 104.44307,107.555664 97.2685547,107.555664 L97.2685547,107.555664 Z M97.2685547,12.5556641 C91.3928743,12.5556641 85.8574479,13.6689342 80.6621094,15.8955078 C75.4667709,18.1220814 70.93638,21.1681122 67.0708008,25.0336914 C63.2052216,28.8992706 60.1437287,33.4296615 57.8862305,38.625 C55.6287322,43.8203385 54.5,49.3866891 54.5,55.3242188 C54.5,61.1998992 55.6287322,66.7353256 57.8862305,71.9306641 C60.1437287,77.1260025 63.2052216,81.6563934 67.0708008,85.5219727 C70.93638,89.3875519 75.4667709,92.4335826 80.6621094,94.6601562 C85.8574479,96.8867299 91.3928743,98 97.2685547,98 C103.144235,98 108.679662,96.8867299 113.875,94.6601562 C119.070338,92.4335826 123.600729,89.3875519 127.466309,85.5219727 C131.331888,81.6563934 134.393381,77.1260025 136.650879,71.9306641 C138.908377,66.7353256 140.037109,61.1998992 140.037109,55.3242188 C140.037109,49.3866891 138.908377,43.8203385 136.650879,38.625 C134.393381,33.4296615 131.331888,28.8992706 127.466309,25.0336914 C123.600729,21.1681122 119.070338,18.1220814 113.875,15.8955078 C108.679662,13.6689342 103.144235,12.5556641 97.2685547,12.5556641 L97.2685547,12.5556641 Z M173.25,193 L21.2871094,193 C17.3287563,193 13.9580217,191.608412 11.1748047,188.825195 C8.39158765,186.041978 7,182.702168 7,178.805664 C7,178.620116 7.06184834,177.599619 7.18554688,175.744141 C7.30924541,173.888663 7.74218379,171.507502 8.484375,168.600586 C9.22656621,165.69367 10.3862226,162.400246 11.9633789,158.720215 C13.5405352,155.040183 15.7516134,151.282897 18.5966797,147.448242 C20.3284592,145.221669 22.1839094,143.103363 24.1630859,141.093262 C26.1422625,139.083161 28.2605681,137.196786 30.5180664,135.434082 C32.7755647,133.671378 35.1876499,132.032397 37.7543945,130.51709 C40.3211391,129.001783 43.027004,127.625657 45.8720703,126.388672 C49.3356293,124.84244 53.0156055,123.481777 56.9121094,122.306641 C60.8086132,121.131505 64.9060657,120.157393 69.2045898,119.384277 C73.5031139,118.611161 77.9871186,118.023602 82.6567383,117.621582 C87.326358,117.219562 92.1969147,117.018555 97.2685547,117.018555 C102.278345,117.018555 107.13344,117.219562 111.833984,117.621582 C116.534529,118.023602 121.018533,118.611161 125.286133,119.384277 C129.553732,120.157393 133.635723,121.131505 137.532227,122.306641 C141.42873,123.481777 145.108707,124.84244 148.572266,126.388672 C151.417332,127.625657 154.123197,129.001783 156.689941,130.51709 C159.256686,132.032397 161.684233,133.671378 163.972656,135.434082 C166.261079,137.196786 168.394847,139.083161 170.374023,141.093262 C172.3532,143.103363 174.177726,145.221669 175.847656,147.448242 C178.754572,151.282897 180.981112,155.040183 182.527344,158.720215 C184.073575,162.400246 185.21777,165.69367 185.959961,168.600586 C186.702152,171.507502 187.150553,173.888663 187.305176,175.744141 C187.459799,177.599619 187.537109,178.620116 187.537109,178.805664 C187.537109,182.702168 186.145522,186.041978 183.362305,188.825195 C180.579088,191.608412 177.208353,193 173.25,193 L173.25,193 Z M97.2685547,126.574219 C88.9807528,126.574219 81.2497104,127.130854 74.0751953,128.244141 C66.9006803,129.357427 60.3447562,131.011871 54.4072266,133.20752 C48.4696969,135.403169 43.1662017,138.139958 38.496582,141.417969 C33.8269623,144.69598 29.8532065,148.468729 26.5751953,152.736328 C24.1012246,155.95249 22.1839261,159.106755 20.8232422,162.199219 C19.4625583,165.291682 18.4575228,168.059395 17.8081055,170.502441 C17.1586882,172.945487 16.772136,174.924634 16.6484375,176.439941 C16.524739,177.955248 16.4628906,178.743815 16.4628906,178.805664 C16.4628906,180.104499 16.9267532,181.217769 17.8544922,182.145508 C18.7822312,183.073247 19.9264255,183.537109 21.2871094,183.537109 L173.25,183.537109 C174.548835,183.537109 175.662105,183.073247 176.589844,182.145508 C177.517583,181.217769 177.981445,180.104499 177.981445,178.805664 C177.981445,178.743815 177.919597,177.955248 177.795898,176.439941 C177.6722,174.924634 177.285648,172.945487 176.63623,170.502441 C175.986813,168.059395 174.99724,165.291682 173.66748,162.199219 C172.337721,159.106755 170.435885,155.95249 167.961914,152.736328 C164.683903,148.468729 160.710147,144.69598 156.040527,141.417969 C151.370908,138.139958 146.05195,135.403169 140.083496,133.20752 C134.115042,131.011871 127.559118,129.357427 120.415527,128.244141 C113.271937,127.130854 105.556357,126.574219 97.2685547,126.574219 L97.2685547,126.574219 Z" id="user" sketch:type="MSShapeGroup"></path>
        </g>
    </g>
</svg>